<svg xmlns="http://www.w3.org/2000/svg" viewBox="0 0 130 127.57">
    <defs>
        <style>.cls-1{fill:#fff;}.cls-2{fill:#f79e1b;}</style>
    </defs>
    <title>Asset 4Symbol-SVG</title>
    <g id="Layer_2" data-name="Layer 2">
        <g id="Layer_1-2" data-name="Layer 1">
            <path class="cls-1" d="M57,4.68c-4.89,1.38-26.24,8-38.47,29.61a62.52,62.52,0,0,0-8,31.65.71.71,0,0,0,.72.73S57.2,98.73,127.88,24.41l.1-.1a194.75,194.75,0,0,1-21.7,26.27C102.9,53.91,78.16,77.66,43.92,82.2a74.2,74.2,0,0,1-25.47-1.76c-10.13-2.5-14.36-6-16.69-9.66A16.78,16.78,0,0,1,0,67c.65-5.91,3.93-29.41,24.2-46.79A70.4,70.4,0,0,1,57,4.68Z"/>
            <path class="cls-1" d="M.88,80.44,6.15,96.25A89,89,0,0,0,47.43,94.5a89.11,89.11,0,0,0,37.77-22A85.57,85.57,0,0,1,46.55,87.47,85.8,85.8,0,0,1,.88,80.44Z"/>
            <path class="cls-1" d="M7.29,102s26.23,37.16,74.32,21.86c0,0,29.87-12.39,35.7-42.26,0,0-20.4,25.5-40.07,29.15a116.06,116.06,0,0,0,25-21.68C122.75,65.24,128.25,38.93,130,26a147,147,0,0,1-8.78,17.57,125.85,125.85,0,0,1-23.58,30A112.75,112.75,0,0,1,73.14,91C45.91,105,19.6,103.56,7.29,102Z"/>
            <path class="cls-2" d="M20.25,62.66V67A88.51,88.51,0,0,0,35.55,70V53.19Z"/>
            <path class="cls-2" d="M38.62,47.36V70a51.88,51.88,0,0,0,16-1.46V37.89Z"/>
            <path class="cls-2" d="M57.56,29.87V67.76s5.83-.72,15.31-5.1V20.4Z"/>
            <path class="cls-2" d="M76.51,10.2v51a103.9,103.9,0,0,0,16-10.2V0Z"/>
        </g>
    </g>
</svg>